<svg width="183" height="60" viewBox="0 0 183 60" fill="none" xmlns="http://www.w3.org/2000/svg">
<g clip-path="url(#clip0)">
<path fill-rule="evenodd" clip-rule="evenodd" d="M24.2983 33.7879C24.2168 34.0213 24.2168 33.9875 24.0454 34.1169L22.9719 34.609C22.705 34.6652 22.3004 34.7102 22.0306 34.7552C20.294 35.0505 21.1005 34.2125 21.4573 34.086C22.1317 33.8469 22.3453 33.7148 23.1883 33.6895C23.947 33.667 24.0201 33.577 24.3011 33.7879H24.2983ZM31.964 31.9572C32.0455 31.7491 32.1748 31.6394 32.5907 31.5326C32.9082 31.451 33.147 31.4454 33.459 31.3357C34.0266 31.1361 33.4281 31.2008 34.3132 31.1417C34.7347 31.1136 34.7179 31.0039 35.1927 30.9955C35.2714 31.2486 35.2827 31.7154 35.1197 31.9319C34.7769 32.3875 32.8379 32.3678 31.964 31.9572ZM20.5244 30.2137C21.2887 30.5793 21.6878 30.748 21.3618 31.8953C20.8729 31.9628 20.5413 31.6872 20.3895 31.4117C20.2856 31.2261 20.2603 30.987 20.2912 30.7452L20.5244 30.2165V30.2137ZM29.82 27.8094C29.4996 27.4748 29.4097 26.5327 29.2805 26.0406L28.4965 23.1638C28.3531 22.5705 27.8811 20.5655 27.6844 20.2758C26.3327 20.2111 19.909 23.0992 18.0769 23.3916C17.5486 23.476 17.7453 23.476 17.3463 23.6025C17.3547 24.7105 18.386 25.6075 18.5152 26.5946C18.0066 26.5524 18.0094 26.2515 17.6469 25.914L16.6185 24.8089C15.8345 23.9372 16.2279 24.3393 14.8847 24.269C13.6202 24.2015 12.5411 23.8612 11.4565 23.2707C11.0799 23.0654 10.9057 22.9614 10.5432 22.6605C10.2594 22.4271 9.98401 22.1093 9.62995 22.1121C9.32647 22.1121 9.2787 22.1824 9.04827 22.3033C8.75884 22.458 7.16275 22.877 6.53892 23.1413L4.01271 23.9821C3.61088 24.0946 3.34673 24.2127 2.9449 24.3505C2.4953 24.5024 2.2171 24.5586 1.81808 24.7133C1.75064 25.0254 1.83213 25.242 1.91924 25.4979C2.12156 26.0968 2.05412 25.5907 2.23677 26.035C2.72291 26.0237 3.03763 25.9225 3.52938 25.8859C4.02957 25.8466 4.47074 25.81 4.95126 25.7425C5.78021 25.63 6.87612 25.4782 7.72756 25.4135C8.55933 25.3488 11.2008 25.076 11.819 24.9298C12.0691 24.8708 12.9177 24.6936 13.0919 24.8258C13.3083 24.9439 13.2155 24.8933 13.3785 25.2223C13.5162 25.5035 14.0754 26.3668 13.8618 26.5861L12.7435 27.0698C12.4315 27.2807 12.0044 27.4466 11.7431 27.68L10.9226 28.4534C10.664 28.7064 10.4842 28.9961 10.2538 29.387C10.1526 29.5585 10.0796 29.6569 9.95029 29.8397C9.42482 30.5793 8.96397 31.8897 8.80942 32.7727C8.75322 33.0877 8.66892 33.0961 8.61553 33.2901C8.56495 33.4757 8.56776 33.8497 8.53123 34.0522L8.36263 35.4667C8.33172 36.9008 8.4947 38.4391 8.81223 39.7889C9.12976 41.1358 9.23092 41.3946 9.60747 42.5728C11.1389 47.359 16.8939 52.0692 21.3871 48.2307C22.1177 47.6064 22.6769 46.8303 23.1743 46.0429C23.2923 45.8545 23.2024 46.0317 23.3063 45.787C23.3625 45.652 23.3822 45.607 23.444 45.4721C23.8121 44.6566 24.2365 43.9001 24.1212 42.9187C23.7082 43.0031 23.8234 43.0677 23.6323 43.3799C23.5311 43.5458 23.326 43.7708 23.2277 43.8889C23.0984 44.0435 22.9972 44.2376 22.8174 44.3922C21.4068 45.6099 20.5385 45.742 18.7119 45.129C18.0263 44.9012 17.6076 44.5047 17.0793 44.0267C16.1267 43.1633 14.9971 41.4002 14.584 40.056C14.2047 38.8215 13.9602 37.4492 13.9939 36.0769C14.022 34.9549 14.0895 34.0747 14.629 33.068C14.7498 32.8458 14.8116 32.649 14.9072 32.4409C15.0336 32.1597 15.1292 32.095 15.2444 31.87C15.4158 31.541 15.6631 30.8268 16.034 30.7424C16.551 30.8183 17.0035 31.2429 16.5342 31.7013C16.1829 32.0444 15.9441 32.1428 15.6237 32.6124C14.5278 34.2209 14.5447 37.033 14.8903 38.9115C15.1067 40.0785 15.4298 40.6915 15.9581 41.5633C16.3656 42.2354 16.936 43.138 17.7481 43.4361C18.0291 43.5402 18.2005 43.5655 18.549 43.5599C18.7934 43.557 19.1082 43.5092 19.3105 43.3939C20.6171 42.6347 21.0724 41.3327 21.3899 39.8114C21.5978 38.8159 21.2213 37.3845 21.4883 36.3469C22.0531 36.2878 23.8459 35.6523 24.214 35.8969C24.6102 36.1585 25.0429 36.7462 25.5094 36.9037C25.6696 36.9571 26.2793 36.8699 26.5294 36.8249C27.1786 36.7068 27.8867 36.6393 28.6004 36.5268C28.9264 36.4762 29.2692 36.434 29.5839 36.3722L30.4831 36.1556C31.003 36.0853 31.8235 35.9954 32.1551 35.5004C32.3546 35.2023 32.8098 34.3784 33.1161 34.1956C33.3072 34.0831 34.7572 33.7316 35.0073 33.8666C35.1478 34.1956 35.0691 35.0505 35.0747 35.4667C35.0832 35.9447 35.1899 36.5072 35.204 36.9936C35.2349 38.1494 35.4147 39.6033 35.7435 40.7337C35.8166 40.984 35.7351 41.0571 35.7913 41.3861C37.7864 48.9675 40.9786 52.3701 45.1824 53.9589C47.3658 54.7997 52.8622 55.0556 55.0259 54.6057C55.9251 54.4173 56.9283 54.4595 57.8106 54.1839L58.3221 54.1192C58.4345 54.1136 58.6003 54.1023 58.6817 54.0855L59.0414 53.9139C58.7773 53.4443 57.2992 52.9044 56.7962 52.5501C56.0347 52.0102 55.5739 51.7543 54.7814 51.1244L53.2612 49.6733C52.0276 48.2673 51.1368 47.0468 50.3135 45.3877C50.173 45.1037 50.0999 45.0756 49.9903 44.7831L48.9506 42.1791C48.2734 40.3541 47.8969 38.3659 47.5175 36.2878C47.1438 34.2237 47.141 31.6591 47.2197 29.4432C47.2815 27.6857 47.481 26.1109 47.8126 24.4883C48.1217 22.9867 48.3605 21.5722 49.0377 20.2365C49.1979 19.9187 49.1698 19.8765 49.2906 19.5644C49.6194 18.7067 50.749 16.9154 51.3448 16.1336C51.7269 15.6331 52.1428 15.0538 52.6065 14.6489L52.983 14.3451C53.1713 14.1595 53.3567 14.033 53.3174 13.6309C52.7329 13.5718 50.6451 14.1371 50.0184 14.2664C49.7852 14.3142 49.507 14.4014 49.2401 14.4717C48.9984 14.5364 48.6106 14.587 48.3971 14.6601C48.1722 14.736 48.2959 14.7248 48.0851 14.7979L46.9134 15.2028C46.593 15.3069 46.4357 15.3547 46.135 15.4419C45.6011 15.5965 44.5136 16.2208 43.9207 16.4795L42.0885 17.4188C42.0885 17.4188 41.9537 17.4891 41.9424 17.4947C41.889 17.5256 41.7626 17.6128 41.7626 17.6128L41.6108 17.6887C41.327 17.7534 41.5294 17.7337 41.3523 17.6747C41.2933 17.3681 41.8413 16.8957 42.0942 16.6314C42.3892 16.3249 42.7489 15.9565 43.0215 15.6556C43.9179 14.6685 47.6636 11.46 47.8098 11.0916C47.9727 10.6838 47.7985 9.7727 47.7817 9.33683C47.1522 9.26372 44.9267 10.158 44.1539 10.4082C43.1142 10.7429 42.1504 11.1394 41.0994 11.4431C40.7875 11.5331 40.8999 11.5246 40.6442 11.6118C40.0709 11.8115 39.3347 11.879 38.753 12.0927C38.4692 12.1967 38.2388 12.3008 37.9522 12.3992C37.5981 12.5201 35.9655 13.5156 35.7351 13.7715C35.6255 13.8924 35.5833 13.9796 35.4653 14.1146C35.3642 14.2299 35.2742 14.3142 35.1843 14.4436C34.3329 15.6724 33.4337 17.6044 32.1158 18.4648C31.2924 19.002 30.6602 19.3394 29.6177 19.615C29.0866 19.7556 29.2439 19.8962 29.3086 20.4474C29.3563 20.8636 29.376 21.1729 29.3929 21.5863L29.9717 27.5141C29.9998 27.7363 30.0167 27.7503 29.8228 27.8122L29.82 27.8094Z" fill="#364149"/>
<path fill-rule="evenodd" clip-rule="evenodd" d="M70.6608 33.636C70.6327 31.766 70.3967 30.0394 70.0848 28.234C69.8347 26.7914 68.5196 23.8303 67.73 22.6858C65.9344 20.0818 62.7591 18.3355 60.1626 21.1504C59.6371 21.7212 58.707 22.7926 58.5862 23.6053C59.2774 23.5013 59.7214 23.1526 60.2834 23.071C60.9522 22.9726 61.4664 23.026 62.0565 23.3269C64.9031 24.7667 66.117 28.9623 66.561 31.8672C66.7521 33.1214 66.7212 34.6765 66.5863 35.9504C65.7517 43.7736 62.0116 43.0621 61.236 43.6245C61.5395 44.0098 62.8996 44.755 63.5374 44.949C64.4732 45.233 65.6759 45.0615 66.5526 44.6341C68.913 43.2027 70.7339 38.4869 70.658 33.636H70.6608Z" fill="#364149"/>
<path fill-rule="evenodd" clip-rule="evenodd" d="M69.9247 42.5194C69.5313 42.5953 69.7954 42.4941 69.3458 42.9243C68.8456 43.4052 68.6433 43.9339 68.0729 44.4738C67.3394 45.1655 66.8758 45.6239 65.8276 45.9614C63.4363 46.7319 61.7391 45.2752 60.5448 44.1363C59.6006 43.2365 58.2631 40.8293 57.7657 39.4627C57.3133 38.2197 57.184 37.871 56.8749 36.6112C55.9307 32.7699 56.0038 27.1626 57.6421 23.5828L58.2855 22.3286C58.4317 22.1009 58.4738 21.9209 58.6087 21.7353C60.3565 19.3366 62.7366 18.268 65.5579 19.7556L66.6735 20.5402L67.9717 22.0643C68.0532 22.1768 68.2527 22.5142 68.4944 22.4636C68.663 21.9996 68.323 21.2882 68.056 20.6976C67.6879 19.8765 66.4908 17.8659 65.9429 17.236C65.6703 16.9238 65.4904 16.7017 65.201 16.3727C64.0433 15.0454 62.2842 13.6731 60.5757 13.06C59.1651 12.5539 57.1362 12.6242 55.8633 13.2822C55.7902 13.3216 55.6863 13.3947 55.6329 13.4256L54.7955 13.8277C54.197 14.1286 52.3873 15.9874 52.0332 16.5976C51.1762 18.074 51.2015 17.8884 50.3922 19.6994C49.4031 21.9153 48.8748 24.9242 48.532 27.382C48.2987 29.0551 48.2762 31.721 48.4617 33.4167C48.7652 36.2231 49.1754 38.6134 50.01 41.3299C50.4933 42.9018 51.297 44.949 52.1119 46.3326L53.0758 47.8033C53.2387 48.0086 53.25 48.1014 53.3792 48.2616L54.5004 49.5805C56.3017 51.3662 57.9708 52.9016 60.9073 52.7441C62.3151 52.6682 63.4391 52.2886 64.5154 51.5209C64.7851 51.3268 65.1673 51.054 65.4314 50.8291C66.1564 50.2132 67.1146 49.1137 67.5867 48.2476C67.6963 48.0451 67.7328 47.9579 67.8649 47.7723L68.1853 47.2465C68.4494 46.6363 68.9131 45.787 69.1294 44.9884C69.3374 44.2235 69.6802 43.678 69.9247 42.5222V42.5194Z" fill="#364149"/>
<path fill-rule="evenodd" clip-rule="evenodd" d="M16.6353 50.7925C16.3066 50.4382 14.185 50.0501 12.4653 48.3291C10.546 46.4085 10.5994 46.3326 9.18315 43.8439C9.06794 43.6414 9.02579 43.3152 8.90496 43.0621C8.25865 41.6983 7.77814 39.1899 7.7107 37.677C7.64607 36.2625 7.75847 34.0775 8.10691 32.7446C8.21088 32.3509 8.2446 32.3818 8.3289 31.8897C8.3851 31.5691 8.55652 31.3835 8.64925 31.0714C8.89372 30.2531 8.95554 30.2475 9.31522 29.5866L10.0795 28.2959C10.3521 27.9837 10.4673 28.1637 10.4814 27.5957C9.94748 27.5816 10.1582 27.6097 9.79574 27.7644C9.59341 27.8516 9.37985 27.8544 9.1129 27.9247C8.89372 27.9809 8.68016 28.1159 8.53123 28.1834L7.94393 28.4449C6.99414 28.743 7.23861 28.788 6.81149 28.9792C6.59793 29.0748 6.4771 29.1058 6.22982 29.2436L5.89542 29.4488C5.88137 29.4573 5.86451 29.4713 5.85046 29.4798L5.76054 29.5388C-1.98389 34.7834 -1.8181 47.5305 5.69029 51.1497C5.92352 51.2621 6.08088 51.2706 6.31412 51.3662C7.88211 52.0158 9.72549 52.0355 11.3469 51.9792C11.597 51.9708 13.8759 51.6249 14.1007 51.5462L16.6381 50.7897L16.6353 50.7925Z" fill="#364149"/>
<path fill-rule="evenodd" clip-rule="evenodd" d="M57.4762 33.8666C57.7123 35.8266 58.1422 37.2861 58.9065 38.8271C59.0611 39.1393 59.2971 39.5808 59.4826 39.862C60.1064 40.8153 59.491 40.0335 60.202 40.7393C61.1827 41.7151 62.7338 41.6083 63.6948 40.7815L64.4142 39.8817C66.1564 36.4537 66.1339 32.7952 65.1813 29.1001C65.0268 28.4955 64.5828 27.3257 64.2962 26.8167C63.81 25.9562 63.5627 25.6638 62.9389 24.9636C62.4556 24.4208 61.5536 24.0215 60.5673 24.2437C60.3706 24.2887 60.1458 24.3871 59.9828 24.4855C59.7158 24.6486 59.8226 24.6402 59.6062 24.8567C58.6171 25.8466 58.3445 26.4765 57.8949 27.9472C57.7938 28.279 57.6645 28.9652 57.6111 29.2857C57.5324 29.761 57.4762 30.2334 57.4509 30.734C57.406 31.6451 57.3779 32.9724 57.4847 33.861L57.4762 33.8666Z" fill="#364149"/>
<path fill-rule="evenodd" clip-rule="evenodd" d="M26.8667 9.67147L27.2235 9.74177C27.2854 9.74177 27.5158 9.69959 27.5804 9.68272C27.9036 9.60679 27.957 9.56461 28.1846 9.4465C28.474 9.29465 29.081 9.10062 29.3929 8.99938C29.4716 8.97407 29.3929 9.005 29.5109 8.96001L30.7895 8.39478C31.4835 8.09389 32.2198 7.91392 32.9953 7.70301C33.6416 7.52866 38.1039 7.19965 39.0313 7.19121C39.3151 7.1884 39.5736 7.22777 39.8686 7.20246C40.8999 7.11247 42.4454 7.17434 42.9063 7.12091L48.4814 6.96343C48.7624 6.96343 49.7627 6.90157 50.0775 6.85657C50.2404 6.58661 50.3079 6.32509 50.5018 6.06638C50.69 5.81329 50.7519 5.52646 50.9092 5.19182L51.7691 3.51864C51.977 2.93935 52.0389 3.04058 52.1906 2.73969C52.303 2.51472 52.2243 2.52597 52.3508 2.28413C52.5559 1.89888 53.3568 0.456279 53.4326 0.130078C53.1601 0.101957 53.1882 0.0991449 52.9156 0.177883L51.6792 0.464715C51.3083 0.56595 51.1818 0.61938 50.7772 0.703742C49.8892 0.892152 49.9651 0.942769 49.4902 1.08619C49.285 1.14805 49.1867 1.11712 48.9619 1.17055L47.1888 1.69359C47.0314 1.7414 46.9162 1.73859 46.7363 1.77515C46.4722 1.83139 46.5031 1.87357 46.3092 1.92981C46.1603 1.97199 45.9917 1.98324 45.8371 2.01698L45.4831 2.13228C45.469 2.1379 45.4494 2.14915 45.4353 2.15759L37.4942 4.4185C36.8844 4.55067 36.1594 4.64066 35.648 4.87125C35.2855 5.03716 35.2349 5.02029 34.7825 5.12714L30.1881 6.71878C28.9967 7.37962 28.1789 7.89704 27.2657 8.96845C27.1111 9.14842 26.8526 9.40713 26.8638 9.66303L26.8667 9.67147Z" fill="#364149"/>
<path fill-rule="evenodd" clip-rule="evenodd" d="M50.9598 6.53881C51.3167 6.48538 51.356 6.39821 51.5864 6.23511C51.7578 6.11419 51.9124 6.02139 52.0641 5.88079C52.3507 5.61645 52.5812 5.29306 52.865 5.00904C53.1263 4.74752 53.3511 4.42975 53.6602 4.12324C53.8344 3.94889 53.9215 3.86452 54.0789 3.71548C54.2025 3.60019 54.3711 3.43428 54.5004 3.3246L58.1675 4.12324C59.3252 4.37632 59.8338 4.86844 58.9824 5.87235C58.7098 6.19293 58.5047 6.08888 58.1534 6.0242C57.7207 5.94546 57.7347 5.86954 57.3273 5.77674L54.5004 5.20589C53.9665 5.14121 53.9581 5.14683 53.6518 5.48991L52.3114 6.96344C52.081 7.21652 52.1175 6.99718 52.1091 7.44149L55.3181 7.99828C56.4168 8.20919 57.4875 8.38073 58.4738 8.59726C59.9069 8.91221 61.0927 8.97689 62.4668 9.28059L64.7092 9.64616C65.1785 9.57867 64.3945 9.78677 64.9059 9.57586C65.586 9.30028 63.7201 6.73566 63.5487 6.45726L62.2055 4.96124L60.1233 3.30492C59.8985 3.17275 59.7552 3.11932 59.55 2.96747C58.8447 2.44442 57.8724 1.98043 57.1699 1.53612L54.7224 0.245376C54.2222 -0.0245835 54.0873 -0.440771 53.4129 1.35334C53.0813 2.23352 51.1115 5.75424 50.9598 6.53881V6.53881Z" fill="#364149"/>
<path fill-rule="evenodd" clip-rule="evenodd" d="M58.5637 1.508C60.3368 2.37693 61.5704 3.2768 62.8293 4.41006C63.7903 5.279 64.1837 5.71206 65.0324 6.71035C65.1785 6.88188 65.2796 7.07873 65.4173 7.23621C66.3784 8.34698 66.3952 8.4679 67.6625 9.50274C68.0869 9.84863 68.8961 10.2451 69.3963 10.5151L73.3416 11.9689L76.3455 12.7057C76.2444 11.7524 73.8699 9.13155 73.114 8.61412C72.9089 8.47352 72.8695 8.39478 72.6784 8.20637L69.5284 5.87235C69.2221 5.64738 69.3373 5.68112 68.9833 5.49834C64.2343 3.06308 64.2624 2.92247 58.9796 1.36458C58.2995 1.34771 58.7604 1.31678 58.5665 1.51362L58.5637 1.508Z" fill="#364149"/>
<path fill-rule="evenodd" clip-rule="evenodd" d="M72.8752 13.659C72.7965 13.4368 72.774 13.4228 72.3329 13.3553L60.7556 11.2659C60.216 11.1759 59.7833 11.055 59.2325 11.0016L54.6718 10.1327C53.6996 9.90769 52.5531 9.73896 51.5499 9.57305C50.8305 9.45494 49.1417 9.0275 48.5376 9.05281C48.5263 9.24403 48.6247 10.3914 48.6668 10.5938C48.7511 11.0016 49.2541 11.0016 50.0016 11.0466C50.5327 11.0803 51.1593 11.1422 51.6567 11.2434C52.1569 11.3447 52.7048 11.3222 53.2584 11.4515C53.6434 11.5415 54.5454 11.5977 54.95 11.6287L63.0289 12.6382C64.1725 12.731 65.2994 12.8829 66.3897 13.0066L72.0715 13.7068C72.2823 13.7321 72.479 13.7827 72.6954 13.7321C72.8555 13.6956 72.7768 13.7209 72.8724 13.6562L72.8752 13.659Z" fill="#364149"/>
<path fill-rule="evenodd" clip-rule="evenodd" d="M35.1478 8.09108C35.1759 8.42572 35.7323 9.20748 35.9374 9.59555C36.2437 10.172 36.2859 10.1242 36.491 10.7373C36.6849 11.3165 37.0783 11.0972 38.1686 10.7429C38.4299 10.6585 38.7783 10.6698 38.9722 10.6107L40.2705 10.1748C40.4812 10.1045 40.8016 10.0427 41.0236 9.99486C41.2933 9.93862 41.5462 9.90769 41.7654 9.82614L47.1916 8.02922C47.3798 7.93642 47.3602 7.97016 47.5288 7.9083L47.8547 7.71426C47.5512 7.46399 46.6689 7.60178 46.2755 7.6299C45.7641 7.66927 45.2021 7.63553 44.6738 7.6749C43.7296 7.7452 42.5016 7.82675 41.5518 7.83518C40.7285 7.84362 35.5777 7.97579 35.1478 8.09108V8.09108Z" fill="#364149"/>
<path fill-rule="evenodd" clip-rule="evenodd" d="M31.9893 9.84863C31.6605 9.98924 31.6746 9.93018 31.4189 10.1523C30.3595 11.0719 31.1884 13.8334 32.8745 13.8193C33.0234 13.8193 32.9616 13.8137 33.0515 13.7912L33.2763 13.7209C33.7315 13.6056 33.9985 13.5521 34.2598 12.8435C34.6251 11.8536 34.2738 11.0578 33.7343 10.352C33.2398 9.70241 32.3771 9.68272 31.9921 9.84863H31.9893Z" fill="#364149"/>
<path fill-rule="evenodd" clip-rule="evenodd" d="M11.729 18.7208C11.1586 18.9963 10.872 19.8681 11.094 20.5992C11.2457 21.0998 12.1758 21.7606 12.7631 21.4625C14.3311 20.6639 13.061 18.074 11.729 18.7179V18.7208Z" fill="#364149"/>
<path fill-rule="evenodd" clip-rule="evenodd" d="M30.7698 16.966C30.6939 16.0943 29.7975 12.6129 29.435 12.3711C28.7409 12.6523 29.8143 16.7635 30.7698 16.966Z" fill="#364149"/>
<path fill-rule="evenodd" clip-rule="evenodd" d="M29.2074 17.385C29.5896 16.8001 28.9039 13.1753 27.7884 13.0882C27.9513 13.7884 28.0834 14.7304 28.3279 15.4503L28.8674 16.9744C28.9798 17.2444 28.9686 17.3147 29.2074 17.385Z" fill="#364149"/>
<path fill-rule="evenodd" clip-rule="evenodd" d="M27.0633 17.9165C27.1139 17.34 26.7599 16.2545 26.6278 15.6978C26.5519 15.3744 26.1248 13.9796 25.7792 13.8924C25.4167 14.3733 25.8045 15.6696 25.9674 16.2124C26.1276 16.7439 26.1782 16.7326 26.3974 17.1685C26.5913 17.5537 26.6868 17.8631 27.0662 17.9165H27.0633Z" fill="#364149"/>
<path fill-rule="evenodd" clip-rule="evenodd" d="M25.7595 18.2174C25.8747 17.4131 24.9614 14.0583 24.5652 14.4211C24.2533 14.7023 24.6242 16.3192 24.7422 16.6735C24.849 16.9913 24.9699 17.3063 25.1441 17.5706C25.4251 18.0037 25.3604 17.9474 25.7595 18.2174Z" fill="#364149"/>
<path fill-rule="evenodd" clip-rule="evenodd" d="M22.9017 19.1173C23.1237 18.9288 22.9692 19.1313 23.0928 18.8726C23.2839 18.4733 23.1293 17.3456 22.9776 16.9238C22.7949 16.4205 22.5561 15.4756 21.9829 15.425C21.8873 16.1224 22.632 18.7067 22.9045 19.1173H22.9017Z" fill="#364149"/>
<path fill-rule="evenodd" clip-rule="evenodd" d="M22.0924 19.2719C22.1964 18.8642 21.9182 17.6662 21.7805 17.3485C21.6063 16.9463 21.4742 15.8862 21.0752 15.7428C20.5385 16.6286 21.3956 19.1538 22.0924 19.2747V19.2719Z" fill="#364149"/>
<path fill-rule="evenodd" clip-rule="evenodd" d="M20.5975 19.75C20.9403 19.1791 20.6762 18.3524 20.5441 17.7843C20.4092 17.1994 20.1395 16.3445 19.5859 16.2236C19.569 16.9773 19.6955 17.5565 19.8809 18.2118L20.3109 19.4378C20.412 19.6909 20.3277 19.6515 20.5947 19.75H20.5975Z" fill="#364149"/>
<path fill-rule="evenodd" clip-rule="evenodd" d="M18.5658 20.3377C18.5209 19.6403 17.9252 17.281 17.4727 17.0504C17.0541 17.7112 17.4194 20.1493 18.5658 20.3377Z" fill="#364149"/>
<path fill-rule="evenodd" clip-rule="evenodd" d="M17.1693 20.8382C17.439 20.4052 16.7927 17.7703 16.1633 17.5481C15.9806 18.0234 16.1661 19.0273 16.3038 19.5025C16.3684 19.7218 16.4752 19.9721 16.6129 20.2336C16.7197 20.4361 16.9529 20.7454 17.1693 20.8411V20.8382Z" fill="#364149"/>
<path fill-rule="evenodd" clip-rule="evenodd" d="M27.9878 17.4413C28.2576 16.9519 27.7012 14.9807 27.468 14.4886C27.2685 14.0611 27.2179 13.8052 26.9172 13.7321C26.8329 14.677 27.0099 15.051 27.2207 15.799C27.2938 16.0633 27.7265 17.3344 27.9878 17.4413V17.4413Z" fill="#364149"/>
<path fill-rule="evenodd" clip-rule="evenodd" d="M24.3292 18.372C24.377 18.2905 24.3798 18.3017 24.4079 18.1583C24.4781 17.7731 24.2617 16.7888 24.1578 16.4992C24.0707 16.2574 23.9554 15.9508 23.8627 15.7146C23.7981 15.5515 23.77 15.5037 23.6744 15.3912C23.4328 15.1016 23.6407 15.2394 23.3063 15.1382C23.3457 16.2292 23.4581 17.1741 24.0369 18.0571L24.332 18.372H24.3292Z" fill="#364149"/>
<path fill-rule="evenodd" clip-rule="evenodd" d="M15.9497 21.1729C16.2616 20.6948 15.4636 18.3411 15.1882 18.1668C14.5784 18.6336 15.1741 20.8439 15.9497 21.1729Z" fill="#364149"/>
<path fill-rule="evenodd" clip-rule="evenodd" d="M19.4538 19.9356C19.6308 19.6206 19.4482 18.5014 19.3555 18.1752C19.2712 17.8799 19.2121 17.7562 19.0829 17.475C18.9002 17.0757 18.903 17.011 18.6164 16.9013C18.2905 17.5003 18.8019 19.0329 19.1756 19.6515C19.2065 19.705 19.229 19.75 19.2683 19.7921C19.3836 19.9215 19.3021 19.8596 19.4538 19.9328V19.9356Z" fill="#364149"/>
<path d="M89.3054 51.0991C89.3054 51.3859 89.2997 51.6249 89.2829 51.8218C89.266 52.013 89.2435 52.1761 89.2154 52.3111C89.1873 52.4404 89.1536 52.5473 89.1143 52.6316C89.0749 52.716 88.9906 52.8172 88.8614 52.9466C88.7265 53.0703 88.5017 53.2278 88.1842 53.4106C87.8638 53.5906 87.5013 53.7537 87.0911 53.9027C86.6864 54.0433 86.2452 54.1614 85.7675 54.2458C85.287 54.3358 84.7925 54.3807 84.2839 54.3807C83.1514 54.3807 82.1482 54.2064 81.2743 53.8493C80.3948 53.5006 79.6614 52.9747 79.0656 52.2857C78.4727 51.5968 78.0231 50.7504 77.7253 49.7577C77.4218 48.765 77.2672 47.6318 77.2672 46.3494C77.2672 44.8703 77.4527 43.5908 77.8208 42.5194C78.1917 41.4424 78.706 40.5509 79.3663 39.8451C80.0267 39.1393 80.8107 38.6162 81.7127 38.2703C82.6147 37.9273 83.6066 37.7557 84.6885 37.7557C85.1269 37.7557 85.5568 37.7951 85.9839 37.8738C86.4054 37.9469 86.8016 38.0538 87.1726 38.1832C87.5379 38.3181 87.8723 38.4644 88.1589 38.6303C88.4511 38.799 88.6619 38.9396 88.7799 39.0633C88.9035 39.1814 88.9878 39.2827 89.0384 39.367C89.0834 39.4514 89.1227 39.5583 89.1508 39.6876C89.1789 39.8226 89.2014 39.9857 89.2183 40.1797C89.2351 40.3766 89.2407 40.6072 89.2407 40.8856C89.2407 41.5295 89.1902 41.9795 89.0778 42.2382C88.9654 42.4969 88.8249 42.6291 88.6506 42.6291C88.4652 42.6291 88.26 42.5503 88.0521 42.3985C87.8442 42.2466 87.5941 42.0723 87.3074 41.8839C87.0264 41.6983 86.6808 41.5239 86.2874 41.3692C85.894 41.2174 85.4191 41.1387 84.8655 41.1387C83.7837 41.1387 82.9603 41.5548 82.3843 42.3844C81.8138 43.2196 81.5272 44.4372 81.5272 46.0457C81.5272 46.8359 81.6003 47.5361 81.7408 48.1436C81.8869 48.7481 82.0948 49.2543 82.3787 49.6621C82.6597 50.067 83.0109 50.3792 83.4324 50.5816C83.8595 50.7841 84.3513 50.8853 84.9161 50.8853C85.4865 50.8853 85.9811 50.801 86.3942 50.6266C86.8044 50.4579 87.1669 50.2667 87.476 50.0558C87.7795 49.8477 88.0409 49.6565 88.2544 49.4849C88.4624 49.3106 88.6366 49.2262 88.7799 49.2262C88.8811 49.2262 88.9597 49.2543 89.0272 49.3106C89.0946 49.3668 89.1452 49.468 89.1845 49.6143C89.2239 49.7661 89.252 49.9573 89.2745 50.1907C89.2969 50.4213 89.3082 50.7222 89.3082 51.0878L89.3054 51.0991ZM103.257 39.9632C103.257 40.3232 103.246 40.6297 103.218 40.8715C103.19 41.1077 103.145 41.3046 103.094 41.448C103.038 41.5886 102.971 41.6898 102.886 41.7404C102.802 41.7967 102.712 41.8248 102.616 41.8248H98.896V53.45C98.896 53.5568 98.8623 53.6524 98.7948 53.7368C98.733 53.8211 98.6206 53.8886 98.4689 53.9449C98.3171 53.9955 98.1036 54.0405 97.831 54.0686C97.5612 54.0967 97.2212 54.108 96.8166 54.108C96.4232 54.108 96.0888 54.0967 95.8246 54.0686C95.5661 54.0405 95.3497 53.9955 95.1924 53.9449C95.0294 53.8886 94.9226 53.8211 94.8608 53.7368C94.799 53.6524 94.7709 53.5568 94.7709 53.45V41.8248H91.0672C90.9548 41.8248 90.8593 41.7967 90.7806 41.7348C90.6963 41.673 90.6289 41.5717 90.5727 41.4311C90.5165 41.2905 90.4771 41.0937 90.449 40.8378C90.4209 40.5847 90.4097 40.2782 90.4097 39.9126C90.4097 39.5864 90.4266 39.308 90.4603 39.083C90.494 38.8581 90.5333 38.6725 90.5895 38.529C90.6457 38.3884 90.7132 38.2872 90.7862 38.2253C90.8649 38.1635 90.9605 38.1354 91.0672 38.1354H102.616C102.712 38.1354 102.802 38.1635 102.886 38.2253C102.971 38.2872 103.038 38.3884 103.094 38.529C103.15 38.6696 103.19 38.8609 103.218 39.0999C103.246 39.3361 103.257 39.6258 103.257 39.9632ZM127.699 45.8911C127.699 47.1312 127.525 48.2785 127.168 49.3274C126.819 50.3707 126.311 51.2678 125.645 52.0186C124.979 52.7694 124.161 53.3515 123.191 53.7621C122.228 54.1727 121.118 54.3836 119.859 54.3836C118.653 54.3836 117.6 54.2373 116.703 53.9393C115.807 53.6412 115.051 53.1997 114.438 52.6204C113.817 52.0327 113.345 51.3128 113.011 50.4551C112.674 49.5974 112.463 48.616 112.373 47.5165H109.667V53.4556C109.667 53.5624 109.633 53.658 109.566 53.7424C109.504 53.8268 109.391 53.8943 109.228 53.9505C109.071 54.0011 108.858 54.0461 108.596 54.0742C108.332 54.1024 107.992 54.1136 107.587 54.1136C107.183 54.1136 106.843 54.1024 106.579 54.0742C106.32 54.0461 106.104 54.0011 105.946 53.9505C105.783 53.8943 105.671 53.8268 105.609 53.7424C105.542 53.658 105.508 53.5624 105.508 53.4556V38.6978C105.508 38.5909 105.542 38.4953 105.609 38.4109C105.671 38.3266 105.783 38.2591 105.946 38.2028C106.104 38.1522 106.317 38.1072 106.579 38.0791C106.843 38.051 107.183 38.0397 107.587 38.0397C107.992 38.0397 108.332 38.051 108.596 38.0791C108.855 38.1072 109.071 38.1522 109.228 38.2028C109.391 38.2591 109.504 38.3266 109.566 38.4109C109.633 38.4953 109.667 38.5909 109.667 38.6978V44.3669H112.423C112.541 43.3686 112.794 42.4603 113.174 41.642C113.55 40.8293 114.059 40.1347 114.691 39.5667C115.323 38.9902 116.093 38.5515 117.001 38.2366C117.909 37.9273 118.946 37.767 120.123 37.767C121.396 37.767 122.509 37.9526 123.456 38.321C124.403 38.6921 125.187 39.2236 125.813 39.9238C126.445 40.624 126.912 41.4761 127.229 42.4856C127.539 43.4952 127.696 44.6285 127.696 45.8995L127.699 45.8911ZM123.402 46.0542C123.402 45.3483 123.352 44.6959 123.245 44.0857C123.144 43.4811 122.964 42.9525 122.703 42.4997C122.444 42.0498 122.093 41.6926 121.654 41.4339C121.216 41.1752 120.662 41.0459 119.991 41.0459C119.387 41.0459 118.864 41.164 118.417 41.4058C117.973 41.6476 117.605 41.9879 117.313 42.4266C117.026 42.8625 116.81 43.3799 116.675 43.9901C116.535 44.5947 116.467 45.2696 116.467 46.0204C116.467 46.76 116.518 47.4377 116.624 48.0564C116.726 48.6722 116.905 49.2009 117.167 49.648C117.425 50.0979 117.771 50.4438 118.204 50.6913C118.639 50.9388 119.196 51.0625 119.878 51.0625C120.438 51.0625 120.938 50.9613 121.379 50.7588C121.817 50.5563 122.185 50.2442 122.489 49.8336C122.787 49.4146 123.02 48.8972 123.172 48.2701C123.324 47.6374 123.402 46.8978 123.402 46.0542V46.0542ZM143.528 53.5006C143.528 53.6524 143.471 53.7705 143.365 53.8605C143.252 53.9505 143.078 54.0124 142.839 54.0517C142.603 54.0911 142.252 54.108 141.785 54.108C141.288 54.108 140.928 54.0911 140.704 54.0517C140.479 54.0124 140.316 53.9505 140.226 53.8605C140.13 53.7705 140.085 53.6524 140.085 53.5006V52.3279C139.476 52.9775 138.79 53.4781 138.012 53.8408C137.239 54.2008 136.376 54.3836 135.429 54.3836C134.651 54.3836 133.929 54.2823 133.277 54.0799C132.622 53.8774 132.06 53.5709 131.579 53.1716C131.102 52.7666 130.728 52.2689 130.464 51.6755C130.2 51.0766 130.07 50.3848 130.07 49.5946C130.07 48.7313 130.239 47.9861 130.573 47.3562C130.911 46.7178 131.414 46.2004 132.08 45.7814C132.746 45.3708 133.569 45.0643 134.561 44.8675C135.547 44.6706 136.696 44.5694 138.006 44.5694H139.442V43.678C139.442 43.214 139.397 42.809 139.301 42.4603C139.211 42.1173 139.054 41.822 138.84 41.5914C138.627 41.3608 138.343 41.1921 137.983 41.0768C137.629 40.9699 137.183 40.9137 136.66 40.9137C135.966 40.9137 135.348 40.9924 134.805 41.1443C134.257 41.2961 133.78 41.4705 133.361 41.6589C132.945 41.8445 132.594 42.0188 132.313 42.1735C132.032 42.3254 131.807 42.4041 131.63 42.4041C131.506 42.4041 131.4 42.3647 131.31 42.2916C131.214 42.2129 131.135 42.1004 131.079 41.9598C131.017 41.8192 130.972 41.6392 130.939 41.4283C130.905 41.2202 130.888 40.9896 130.888 40.7393C130.888 40.3963 130.916 40.1235 130.972 39.9266C131.023 39.7298 131.13 39.5555 131.282 39.3895C131.439 39.2321 131.703 39.0577 132.094 38.8665C132.476 38.6753 132.928 38.4953 133.445 38.3294C133.965 38.1607 134.527 38.0257 135.137 37.9244C135.752 37.8176 136.382 37.767 137.031 37.767C138.186 37.767 139.172 37.8795 139.995 38.1044C140.813 38.3294 141.49 38.6809 142.013 39.1477C142.544 39.6173 142.932 40.2191 143.174 40.9587C143.415 41.6926 143.533 42.5728 143.533 43.5824V53.5062L143.528 53.5006ZM139.436 47.1706H137.851C137.18 47.1706 136.612 47.2212 136.137 47.3168C135.665 47.418 135.28 47.5643 134.982 47.7667C134.684 47.9636 134.468 48.1998 134.333 48.4838C134.193 48.765 134.125 49.0884 134.125 49.4484C134.125 50.0698 134.322 50.5535 134.713 50.905C135.1 51.2593 135.643 51.4365 136.337 51.4365C136.918 51.4365 137.452 51.2903 137.944 50.9922C138.436 50.6941 138.93 50.2582 139.439 49.6846V47.1734L139.436 47.1706ZM162.492 45.8573C162.492 47.1649 162.352 48.3516 162.071 49.4006C161.796 50.4495 161.383 51.3465 160.843 52.0861C160.306 52.8257 159.637 53.3881 158.837 53.7902C158.03 54.1839 157.111 54.3836 156.08 54.3836C155.653 54.3836 155.257 54.3442 154.903 54.2598C154.543 54.1755 154.197 54.0517 153.86 53.883C153.528 53.7087 153.194 53.5006 152.863 53.2447C152.537 52.9916 152.191 52.6907 151.842 52.3532V59.2906C151.842 59.4031 151.809 59.4987 151.741 59.5887C151.679 59.6731 151.567 59.7518 151.404 59.8081C151.247 59.8699 151.033 59.9149 150.772 59.9487C150.508 59.9824 150.168 59.9993 149.763 59.9993C149.358 59.9993 149.018 59.9824 148.754 59.9487C148.496 59.9149 148.279 59.8699 148.122 59.8081C147.959 59.7518 147.847 59.6731 147.785 59.5887C147.717 59.4987 147.684 59.4031 147.684 59.2906V38.695C147.684 38.5881 147.712 38.4925 147.768 38.4081C147.819 38.3238 147.914 38.2563 148.055 38.2C148.189 38.1494 148.369 38.1044 148.603 38.0763C148.827 38.0482 149.111 38.0369 149.448 38.0369C149.78 38.0369 150.058 38.0482 150.283 38.0763C150.508 38.1044 150.693 38.1494 150.831 38.2C150.966 38.2563 151.061 38.3238 151.117 38.4081C151.174 38.4925 151.202 38.5881 151.202 38.7006V40.4384C151.629 39.9998 152.048 39.6089 152.463 39.2771C152.874 38.9396 153.292 38.6612 153.72 38.4362C154.155 38.2113 154.593 38.0426 155.049 37.9273C155.507 37.8204 155.99 37.7642 156.51 37.7642C157.586 37.7642 158.505 37.9779 159.267 38.4025C160.022 38.8243 160.641 39.4064 161.121 40.146C161.599 40.8799 161.95 41.7433 162.169 42.7247C162.388 43.7005 162.495 44.7494 162.495 45.8601L162.492 45.8573ZM158.162 46.1442C158.162 45.5171 158.117 44.9153 158.022 44.3388C157.932 43.7623 157.769 43.2505 157.544 42.7978C157.319 42.3479 157.024 41.9851 156.659 41.7208C156.288 41.4508 155.83 41.3158 155.285 41.3158C155.009 41.3158 154.737 41.3552 154.467 41.4396C154.197 41.5239 153.925 41.6533 153.644 41.8445C153.363 42.0301 153.073 42.2719 152.781 42.5672C152.483 42.8653 152.166 43.2337 151.84 43.6723V48.5288C152.421 49.2628 152.978 49.8252 153.503 50.2273C154.034 50.6266 154.579 50.8263 155.15 50.8263C155.692 50.8263 156.147 50.6913 156.524 50.4157C156.901 50.1401 157.218 49.7774 157.454 49.3387C157.696 48.8944 157.876 48.391 157.991 47.8258C158.109 47.2662 158.165 46.7038 158.165 46.1442H158.162ZM167.177 58.8323C167.177 58.9279 167.149 59.0122 167.092 59.0854C167.042 59.1585 166.941 59.2147 166.8 59.2653C166.66 59.316 166.474 59.3553 166.247 59.3834C166.022 59.4116 165.738 59.4228 165.401 59.4228C165.052 59.4228 164.757 59.4116 164.527 59.3834C164.297 59.3553 164.111 59.316 163.968 59.2653C163.827 59.2147 163.726 59.1585 163.675 59.0854C163.619 59.0122 163.591 58.9279 163.591 58.8266V51.4365C163.591 51.1047 163.647 50.8769 163.754 50.7644C163.867 50.6463 164.08 50.5901 164.398 50.5901H165.204C165.553 50.1289 165.887 49.603 166.19 49.0209C166.5 48.4332 166.789 47.7133 167.053 46.85C167.323 45.9811 167.573 44.949 167.798 43.7426C168.023 42.5363 168.231 41.0909 168.43 39.4036C168.453 39.2068 168.486 39.0324 168.537 38.8665C168.587 38.709 168.655 38.574 168.745 38.4672C168.829 38.3547 168.941 38.2703 169.082 38.2197C169.217 38.1635 169.385 38.1354 169.585 38.1354H178.706C179.1 38.1354 179.395 38.2478 179.58 38.4728C179.766 38.6978 179.861 39.0324 179.861 39.4711V50.5901H181.542C181.839 50.5901 182.05 50.6463 182.174 50.7644C182.303 50.8769 182.365 51.1019 182.365 51.4365V58.8266C182.365 58.9279 182.337 59.0122 182.281 59.0854C182.23 59.1585 182.129 59.2147 181.988 59.2653C181.842 59.316 181.657 59.3553 181.424 59.3834C181.193 59.4116 180.901 59.4228 180.55 59.4228C180.207 59.4228 179.917 59.4116 179.687 59.3834C179.457 59.3553 179.271 59.316 179.133 59.2653C178.993 59.2147 178.897 59.1585 178.836 59.0854C178.774 59.0122 178.746 58.9279 178.746 58.8323V54.0096H167.18V58.8323H167.177ZM175.666 41.4508H172.148C171.962 42.84 171.76 44.0295 171.538 45.0278C171.319 46.0261 171.088 46.8837 170.844 47.6008C170.602 48.3179 170.341 48.9028 170.071 49.3668C169.807 49.828 169.534 50.2357 169.27 50.5901H175.663V41.4508H175.666Z" fill="#364149"/>
<path d="M103.201 30.6862C103.37 31.2036 103.482 31.617 103.527 31.9207C103.572 32.2244 103.513 32.4521 103.358 32.6096C103.195 32.7587 102.914 32.8543 102.51 32.8908C102.111 32.9274 101.549 32.9414 100.846 32.9414C100.107 32.9414 99.5311 32.933 99.1236 32.9105C98.7105 32.888 98.3986 32.843 98.1766 32.7783C97.9631 32.7109 97.8141 32.6237 97.727 32.5056C97.6371 32.3959 97.564 32.2384 97.5135 32.0556L95.6729 26.4202H85.1044L83.3369 31.901C83.2779 32.1091 83.2048 32.2778 83.1065 32.41C83.0165 32.5506 82.862 32.6546 82.6569 32.7362C82.4489 32.8177 82.1539 32.8683 81.7689 32.8993C81.3839 32.9274 80.8809 32.9443 80.2599 32.9443C79.5939 32.9443 79.0769 32.9218 78.7004 32.8768C78.3238 32.8318 78.0653 32.7277 77.9248 32.5674C77.7759 32.3987 77.7253 32.1597 77.7702 31.8588C77.8152 31.5551 77.9248 31.1558 78.0962 30.6468L86.7286 5.75987C86.8101 5.51522 86.9141 5.31556 87.0321 5.16933C87.1417 5.01467 87.3271 4.90218 87.58 4.82063C87.8386 4.73908 88.187 4.68846 88.6366 4.66597C89.0806 4.64347 89.6707 4.63503 90.4097 4.63503C91.2583 4.63503 91.9384 4.64347 92.4414 4.66597C92.95 4.68846 93.3434 4.73908 93.6244 4.82063C93.9054 4.90218 94.1049 5.02029 94.2314 5.17495C94.3494 5.33806 94.4618 5.55177 94.5405 5.82454L103.201 30.689V30.6862ZM90.3423 10.0961H90.3198L86.4167 22.0249H94.2791L90.3395 10.0961H90.3423ZM129.199 22.3596C129.199 24.075 128.949 25.6132 128.438 26.9658C127.935 28.3268 127.196 29.4741 126.212 30.4134C125.229 31.3526 124.018 32.0697 122.576 32.559C121.129 33.0539 119.471 33.2986 117.594 33.2986C115.835 33.2986 114.253 33.0764 112.856 32.6405C111.451 32.1962 110.268 31.5326 109.302 30.6355C108.332 29.7413 107.593 28.6249 107.084 27.2863C106.576 25.9478 106.317 24.3871 106.317 22.5986V5.54334C106.317 5.40273 106.362 5.27057 106.449 5.15246C106.531 5.04279 106.685 4.94436 106.907 4.87125C107.129 4.79814 107.424 4.74471 107.787 4.70252C108.141 4.65753 108.607 4.63503 109.169 4.63503C109.709 4.63503 110.167 4.65753 110.521 4.70252C110.884 4.74752 111.173 4.79814 111.387 4.87125C111.6 4.94436 111.755 5.03997 111.853 5.15246C111.949 5.27057 111.994 5.40273 111.994 5.54334V22.1093C111.994 23.2257 112.134 24.1874 112.407 25.0086C112.679 25.8213 113.073 26.5018 113.59 27.0361C114.098 27.5676 114.714 27.9753 115.43 28.2425C116.147 28.5096 116.945 28.6418 117.824 28.6418C118.718 28.6418 119.524 28.5012 120.227 28.2284C120.935 27.9556 121.536 27.5563 122.031 27.0304C122.52 26.499 122.902 25.8466 123.169 25.0789C123.436 24.3027 123.568 23.4225 123.568 22.4383V5.54615C123.568 5.40554 123.613 5.27338 123.7 5.15527C123.782 5.0456 123.936 4.94718 124.15 4.87406C124.363 4.80095 124.658 4.74752 125.029 4.70534C125.397 4.66034 125.858 4.63785 126.403 4.63785C126.951 4.63785 127.401 4.66034 127.755 4.70534C128.109 4.75033 128.398 4.80095 128.612 4.87406C128.826 4.94718 128.98 5.04279 129.062 5.15527C129.152 5.27338 129.194 5.40554 129.194 5.54615V22.3652L129.199 22.3596ZM153.933 7.10123C153.933 7.52304 153.919 7.87736 153.883 8.18107C153.846 8.47634 153.793 8.71255 153.72 8.88971C153.647 9.07531 153.557 9.20748 153.447 9.28903C153.343 9.37902 153.217 9.4212 153.093 9.4212H146.088V32.0303C146.088 32.1709 146.043 32.3031 145.947 32.4212C145.852 32.5309 145.697 32.6293 145.481 32.7024C145.267 32.7699 144.972 32.829 144.601 32.8711C144.233 32.9161 143.772 32.9386 143.227 32.9386C142.679 32.9386 142.221 32.9161 141.853 32.8711C141.485 32.8261 141.187 32.7671 140.973 32.7024C140.76 32.6293 140.605 32.5337 140.507 32.4212C140.411 32.3031 140.366 32.1709 140.366 32.0303V9.4212H133.361C133.22 9.4212 133.094 9.3762 132.993 9.28903C132.897 9.20748 132.807 9.07531 132.734 8.88971C132.667 8.71255 132.608 8.47634 132.571 8.18107C132.535 7.87736 132.521 7.52304 132.521 7.10123C132.521 6.67098 132.535 6.3026 132.571 5.99889C132.608 5.69519 132.667 5.45054 132.734 5.27338C132.807 5.08778 132.897 4.96405 132.993 4.8825C133.097 4.80095 133.223 4.76439 133.361 4.76439H153.093C153.219 4.76439 153.337 4.80095 153.447 4.8825C153.557 4.96405 153.647 5.09059 153.72 5.27338C153.793 5.45054 153.846 5.69519 153.883 5.99889C153.919 6.3026 153.933 6.67098 153.933 7.10123V7.10123ZM181.263 18.462C181.263 20.7848 180.974 22.8629 180.398 24.6964C179.822 26.5299 178.965 28.0906 177.818 29.3645C176.68 30.644 175.27 31.6198 173.592 32.2919C171.906 32.9639 169.964 33.2986 167.753 33.2986C165.572 33.2986 163.673 33.0089 162.054 32.4409C160.427 31.87 159.075 31.0067 157.991 29.8313C156.912 28.6615 156.1 27.1767 155.56 25.3713C155.021 23.566 154.748 21.4288 154.748 18.9598C154.748 16.696 155.037 14.6545 155.614 12.8435C156.19 11.0325 157.047 9.49431 158.193 8.22044C159.331 6.94938 160.742 5.97077 162.419 5.29869C164.105 4.61816 166.056 4.2779 168.281 4.2779C170.403 4.2779 172.271 4.55911 173.898 5.12152C175.517 5.68394 176.877 6.55006 177.962 7.72551C179.055 8.89534 179.875 10.3661 180.429 12.1489C180.982 13.9374 181.263 16.038 181.263 18.4649V18.462ZM175.278 18.7517C175.278 17.281 175.16 15.9424 174.93 14.736C174.699 13.5296 174.309 12.4948 173.755 11.6371C173.201 10.7794 172.462 10.113 171.538 9.64054C170.613 9.17373 169.461 8.93752 168.079 8.93752C166.682 8.93752 165.513 9.20467 164.583 9.72771C163.645 10.2536 162.883 10.9622 162.307 11.8424C161.731 12.7226 161.324 13.7518 161.087 14.9273C160.851 16.1111 160.733 17.3541 160.733 18.6701C160.733 20.1999 160.851 21.5778 161.082 22.7983C161.312 24.0187 161.703 25.062 162.251 25.9337C162.799 26.7999 163.529 27.4579 164.454 27.9163C165.378 28.3662 166.539 28.5968 167.936 28.5968C169.332 28.5968 170.501 28.3381 171.431 27.8122C172.37 27.2948 173.131 26.5833 173.707 25.6891C174.283 24.7948 174.691 23.7516 174.927 22.5621C175.163 21.3725 175.281 20.0987 175.281 18.7545L175.278 18.7517Z" fill="#364149"/>
</g>
<defs>
<clipPath id="clip0">
<rect width="182.362" height="60" fill="white"/>
</clipPath>
</defs>
</svg>
